{
	"asset":{
		"generator":"Khronos glTF Blender I/O v4.1.63",
		"version":"2.0"
	},
	"scene":0,
	"scenes":[
		{
			"name":"Scene",
			"nodes":[
				0
			]
		}
	],
	"nodes":[
		{
			"mesh":0,
			"name":"Plane",
			"translation":[
				0.0017930618487298489,
				0.1567654013633728,
				0.003259907243773341
			]
		}
	],
	"animations":[
		{
			"channels":[
				{
					"sampler":0,
					"target":{
						"node":0,
						"path":"translation"
					}
				},
				{
					"sampler":1,
					"target":{
						"node":0,
						"path":"rotation"
					}
				},
				{
					"sampler":2,
					"target":{
						"node":0,
						"path":"scale"
					}
				}
			],
			"name":"PlaneAction",
			"samplers":[
				{
					"input":8,
					"interpolation":"STEP",
					"output":9
				},
				{
					"input":10,
					"interpolation":"LINEAR",
					"output":11
				},
				{
					"input":8,
					"interpolation":"STEP",
					"output":12
				}
			]
		}
	],
	"materials":[
		{
			"doubleSided":true,
			"name":"Material.001",
			"pbrMetallicRoughness":{
				"baseColorFactor":[
					0,
					0,
					0,
					1
				],
				"roughnessFactor":0.6141732335090637
			}
		},
		{
			"doubleSided":true,
			"name":"Material.002",
			"pbrMetallicRoughness":{}
		}
	],
	"meshes":[
		{
			"name":"Plane",
			"primitives":[
				{
					"attributes":{
						"POSITION":0,
						"NORMAL":1,
						"TEXCOORD_0":2
					},
					"indices":3,
					"material":0
				},
				{
					"attributes":{
						"POSITION":4,
						"NORMAL":5,
						"TEXCOORD_0":6
					},
					"indices":7,
					"material":1
				}
			]
		}
	],
	"accessors":[
		{
			"bufferView":0,
			"componentType":5126,
			"count":596,
			"max":[
				0.9982069134712219,
				0.10977974534034729,
				0.9967401027679443
			],
			"min":[
				-1.0017930269241333,
				-0.1567654013633728,
				-1.0032598972320557
			],
			"type":"VEC3"
		},
		{
			"bufferView":1,
			"componentType":5126,
			"count":596,
			"type":"VEC3"
		},
		{
			"bufferView":2,
			"componentType":5126,
			"count":596,
			"type":"VEC2"
		},
		{
			"bufferView":3,
			"componentType":5123,
			"count":2511,
			"type":"SCALAR"
		},
		{
			"bufferView":4,
			"componentType":5126,
			"count":321,
			"max":[
				0.9982069134712219,
				0.20425570011138916,
				0.7238000631332397
			],
			"min":[
				-0.5004453659057617,
				-0.13422265648841858,
				-0.7238031625747681
			],
			"type":"VEC3"
		},
		{
			"bufferView":5,
			"componentType":5126,
			"count":321,
			"type":"VEC3"
		},
		{
			"bufferView":6,
			"componentType":5126,
			"count":321,
			"type":"VEC2"
		},
		{
			"bufferView":7,
			"componentType":5123,
			"count":744,
			"type":"SCALAR"
		},
		{
			"bufferView":8,
			"componentType":5126,
			"count":2,
			"max":[
				4.166666666666667
			],
			"min":[
				0
			],
			"type":"SCALAR"
		},
		{
			"bufferView":9,
			"componentType":5126,
			"count":2,
			"type":"VEC3"
		},
		{
			"bufferView":10,
			"componentType":5126,
			"count":101,
			"max":[
				4.166666666666667
			],
			"min":[
				0
			],
			"type":"SCALAR"
		},
		{
			"bufferView":11,
			"componentType":5126,
			"count":101,
			"type":"VEC4"
		},
		{
			"bufferView":12,
			"componentType":5126,
			"count":2,
			"type":"VEC3"
		}
	],
	"bufferViews":[
		{
			"buffer":0,
			"byteLength":7152,
			"byteOffset":0,
			"target":34962
		},
		{
			"buffer":0,
			"byteLength":7152,
			"byteOffset":7152,
			"target":34962
		},
		{
			"buffer":0,
			"byteLength":4768,
			"byteOffset":14304,
			"target":34962
		},
		{
			"buffer":0,
			"byteLength":5022,
			"byteOffset":19072,
			"target":34963
		},
		{
			"buffer":0,
			"byteLength":3852,
			"byteOffset":24096,
			"target":34962
		},
		{
			"buffer":0,
			"byteLength":3852,
			"byteOffset":27948,
			"target":34962
		},
		{
			"buffer":0,
			"byteLength":2568,
			"byteOffset":31800,
			"target":34962
		},
		{
			"buffer":0,
			"byteLength":1488,
			"byteOffset":34368,
			"target":34963
		},
		{
			"buffer":0,
			"byteLength":8,
			"byteOffset":35856
		},
		{
			"buffer":0,
			"byteLength":24,
			"byteOffset":35864
		},
		{
			"buffer":0,
			"byteLength":404,
			"byteOffset":35888
		},
		{
			"buffer":0,
			"byteLength":1616,
			"byteOffset":36292
		},
		{
			"buffer":0,
			"byteLength":24,
			"byteOffset":37908
		}
	],
	"buffers":[
		{
			"byteLength":37932,
			"uri":"DAILYAPPSTXT.bin"
		}
	]
}
