{
	"asset":{
		"generator":"Khronos glTF Blender I/O v4.1.63",
		"version":"2.0"
	},
	"extensionsUsed":[
		"KHR_materials_emissive_strength"
	],
	"scene":0,
	"scenes":[
		{
			"name":"Scene",
			"nodes":[
				0,
				1,
				2,
				3
			]
		}
	],
	"nodes":[
		{
			"mesh":0,
			"name":"Plane",
			"translation":[
				0.0017930618487298489,
				0.1567654013633728,
				0.003259907243773341
			]
		},
		{
			"mesh":1,
			"name":"Text",
			"scale":[
				0.7434406876564026,
				0.7434406876564026,
				0.7434406876564026
			],
			"translation":[
				-2.0397839546203613,
				-0.029892489314079285,
				1.61557936668396
			]
		},
		{
			"mesh":2,
			"name":"Text.001",
			"scale":[
				0.7434406876564026,
				0.7434406876564026,
				0.7434406876564026
			],
			"translation":[
				-2.0397839546203613,
				-0.08909108489751816,
				1.61557936668396
			]
		},
		{
			"mesh":3,
			"name":"Text.002",
			"scale":[
				0.7434406876564026,
				0.03705863654613495,
				0.7434406876564026
			],
			"translation":[
				-2.0397839546203613,
				0.05895271897315979,
				1.61557936668396
			]
		}
	],
	"animations":[
		{
			"channels":[
				{
					"sampler":0,
					"target":{
						"node":0,
						"path":"translation"
					}
				},
				{
					"sampler":1,
					"target":{
						"node":0,
						"path":"rotation"
					}
				},
				{
					"sampler":2,
					"target":{
						"node":0,
						"path":"scale"
					}
				}
			],
			"name":"PlaneAction",
			"samplers":[
				{
					"input":24,
					"interpolation":"STEP",
					"output":25
				},
				{
					"input":26,
					"interpolation":"LINEAR",
					"output":27
				},
				{
					"input":24,
					"interpolation":"STEP",
					"output":28
				}
			]
		}
	],
	"materials":[
		{
			"doubleSided":true,
			"name":"Material.001",
			"pbrMetallicRoughness":{
				"baseColorFactor":[
					0,
					0,
					0,
					1
				],
				"roughnessFactor":0.6141732335090637
			}
		},
		{
			"doubleSided":true,
			"name":"Material.002",
			"pbrMetallicRoughness":{}
		},
		{
			"doubleSided":true,
			"name":"Material.007",
			"pbrMetallicRoughness":{
				"baseColorFactor":[
					0,
					0,
					0,
					1
				],
				"roughnessFactor":0
			}
		},
		{
			"doubleSided":true,
			"emissiveFactor":[
				1,
				1,
				1
			],
			"extensions":{
				"KHR_materials_emissive_strength":{
					"emissiveStrength":10
				}
			},
			"name":"Material.006",
			"pbrMetallicRoughness":{
				"baseColorFactor":[
					0,
					0,
					0,
					1
				],
				"roughnessFactor":0
			}
		},
		{
			"doubleSided":true,
			"emissiveFactor":[
				1,
				0.0026616458781063557,
				0
			],
			"extensions":{
				"KHR_materials_emissive_strength":{
					"emissiveStrength":10
				}
			},
			"name":"Material.008",
			"pbrMetallicRoughness":{
				"baseColorFactor":[
					0.8001892566680908,
					0.0018951030215248466,
					0,
					1
				],
				"metallicFactor":0,
				"roughnessFactor":0.5
			}
		}
	],
	"meshes":[
		{
			"name":"Plane",
			"primitives":[
				{
					"attributes":{
						"POSITION":0,
						"NORMAL":1,
						"TEXCOORD_0":2
					},
					"indices":3,
					"material":0
				},
				{
					"attributes":{
						"POSITION":4,
						"NORMAL":5,
						"TEXCOORD_0":6
					},
					"indices":7,
					"material":1
				}
			]
		},
		{
			"name":"Text",
			"primitives":[
				{
					"attributes":{
						"POSITION":8,
						"NORMAL":9,
						"TEXCOORD_0":10
					},
					"indices":11,
					"material":0
				}
			]
		},
		{
			"name":"Text.001",
			"primitives":[
				{
					"attributes":{
						"POSITION":12,
						"NORMAL":13,
						"TEXCOORD_0":14
					},
					"indices":15,
					"material":2
				}
			]
		},
		{
			"name":"Text.002",
			"primitives":[
				{
					"attributes":{
						"POSITION":16,
						"NORMAL":17,
						"TEXCOORD_0":18
					},
					"indices":19,
					"material":3
				},
				{
					"attributes":{
						"POSITION":20,
						"NORMAL":21,
						"TEXCOORD_0":22
					},
					"indices":23,
					"material":4
				}
			]
		}
	],
	"accessors":[
		{
			"bufferView":0,
			"componentType":5126,
			"count":596,
			"max":[
				0.9982069134712219,
				0.10977974534034729,
				0.9967401027679443
			],
			"min":[
				-1.0017930269241333,
				-0.1567654013633728,
				-1.0032598972320557
			],
			"type":"VEC3"
		},
		{
			"bufferView":1,
			"componentType":5126,
			"count":596,
			"type":"VEC3"
		},
		{
			"bufferView":2,
			"componentType":5126,
			"count":596,
			"type":"VEC2"
		},
		{
			"bufferView":3,
			"componentType":5123,
			"count":2511,
			"type":"SCALAR"
		},
		{
			"bufferView":4,
			"componentType":5126,
			"count":321,
			"max":[
				0.9982069134712219,
				0.20425570011138916,
				0.7238000631332397
			],
			"min":[
				-0.5004453659057617,
				-0.13422265648841858,
				-0.7238031625747681
			],
			"type":"VEC3"
		},
		{
			"bufferView":5,
			"componentType":5126,
			"count":321,
			"type":"VEC3"
		},
		{
			"bufferView":6,
			"componentType":5126,
			"count":321,
			"type":"VEC2"
		},
		{
			"bufferView":7,
			"componentType":5123,
			"count":744,
			"type":"SCALAR"
		},
		{
			"bufferView":8,
			"componentType":5126,
			"count":964,
			"max":[
				5.501417636871338,
				0.11999999731779099,
				0.0008340283529832959
			],
			"min":[
				0.04170141741633415,
				-0.11999999731779099,
				-0.5963302850723267
			],
			"type":"VEC3"
		},
		{
			"bufferView":9,
			"componentType":5126,
			"count":964,
			"type":"VEC3"
		},
		{
			"bufferView":10,
			"componentType":5126,
			"count":964,
			"type":"VEC2"
		},
		{
			"bufferView":11,
			"componentType":5123,
			"count":2820,
			"type":"SCALAR"
		},
		{
			"bufferView":12,
			"componentType":5126,
			"count":470,
			"max":[
				5.501417636871338,
				0,
				0.0008340283529832959
			],
			"min":[
				0.04170141741633415,
				0,
				-0.5963302850723267
			],
			"type":"VEC3"
		},
		{
			"bufferView":13,
			"componentType":5126,
			"count":470,
			"type":"VEC3"
		},
		{
			"bufferView":14,
			"componentType":5126,
			"count":470,
			"type":"VEC2"
		},
		{
			"bufferView":15,
			"componentType":5123,
			"count":1374,
			"type":"SCALAR"
		},
		{
			"bufferView":16,
			"componentType":5126,
			"count":4738,
			"max":[
				2.847864866256714,
				0.12999999523162842,
				0.010000000707805157
			],
			"min":[
				0.03170141577720642,
				-0.12999999523162842,
				-0.6063430309295654
			],
			"type":"VEC3"
		},
		{
			"bufferView":17,
			"componentType":5126,
			"count":4738,
			"type":"VEC3"
		},
		{
			"bufferView":18,
			"componentType":5126,
			"count":4738,
			"type":"VEC2"
		},
		{
			"bufferView":19,
			"componentType":5123,
			"count":26400,
			"type":"SCALAR"
		},
		{
			"bufferView":20,
			"componentType":5126,
			"count":6348,
			"max":[
				5.5114312171936035,
				0.12999999523162842,
				0.010834028013050556
			],
			"min":[
				2.9318675994873047,
				-0.12999999523162842,
				-0.6063430309295654
			],
			"type":"VEC3"
		},
		{
			"bufferView":21,
			"componentType":5126,
			"count":6348,
			"type":"VEC3"
		},
		{
			"bufferView":22,
			"componentType":5126,
			"count":6348,
			"type":"VEC2"
		},
		{
			"bufferView":23,
			"componentType":5123,
			"count":35640,
			"type":"SCALAR"
		},
		{
			"bufferView":24,
			"componentType":5126,
			"count":2,
			"max":[
				4.166666666666667
			],
			"min":[
				0
			],
			"type":"SCALAR"
		},
		{
			"bufferView":25,
			"componentType":5126,
			"count":2,
			"type":"VEC3"
		},
		{
			"bufferView":26,
			"componentType":5126,
			"count":101,
			"max":[
				4.166666666666667
			],
			"min":[
				0
			],
			"type":"SCALAR"
		},
		{
			"bufferView":27,
			"componentType":5126,
			"count":101,
			"type":"VEC4"
		},
		{
			"bufferView":28,
			"componentType":5126,
			"count":2,
			"type":"VEC3"
		}
	],
	"bufferViews":[
		{
			"buffer":0,
			"byteLength":7152,
			"byteOffset":0,
			"target":34962
		},
		{
			"buffer":0,
			"byteLength":7152,
			"byteOffset":7152,
			"target":34962
		},
		{
			"buffer":0,
			"byteLength":4768,
			"byteOffset":14304,
			"target":34962
		},
		{
			"buffer":0,
			"byteLength":5022,
			"byteOffset":19072,
			"target":34963
		},
		{
			"buffer":0,
			"byteLength":3852,
			"byteOffset":24096,
			"target":34962
		},
		{
			"buffer":0,
			"byteLength":3852,
			"byteOffset":27948,
			"target":34962
		},
		{
			"buffer":0,
			"byteLength":2568,
			"byteOffset":31800,
			"target":34962
		},
		{
			"buffer":0,
			"byteLength":1488,
			"byteOffset":34368,
			"target":34963
		},
		{
			"buffer":0,
			"byteLength":11568,
			"byteOffset":35856,
			"target":34962
		},
		{
			"buffer":0,
			"byteLength":11568,
			"byteOffset":47424,
			"target":34962
		},
		{
			"buffer":0,
			"byteLength":7712,
			"byteOffset":58992,
			"target":34962
		},
		{
			"buffer":0,
			"byteLength":5640,
			"byteOffset":66704,
			"target":34963
		},
		{
			"buffer":0,
			"byteLength":5640,
			"byteOffset":72344,
			"target":34962
		},
		{
			"buffer":0,
			"byteLength":5640,
			"byteOffset":77984,
			"target":34962
		},
		{
			"buffer":0,
			"byteLength":3760,
			"byteOffset":83624,
			"target":34962
		},
		{
			"buffer":0,
			"byteLength":2748,
			"byteOffset":87384,
			"target":34963
		},
		{
			"buffer":0,
			"byteLength":56856,
			"byteOffset":90132,
			"target":34962
		},
		{
			"buffer":0,
			"byteLength":56856,
			"byteOffset":146988,
			"target":34962
		},
		{
			"buffer":0,
			"byteLength":37904,
			"byteOffset":203844,
			"target":34962
		},
		{
			"buffer":0,
			"byteLength":52800,
			"byteOffset":241748,
			"target":34963
		},
		{
			"buffer":0,
			"byteLength":76176,
			"byteOffset":294548,
			"target":34962
		},
		{
			"buffer":0,
			"byteLength":76176,
			"byteOffset":370724,
			"target":34962
		},
		{
			"buffer":0,
			"byteLength":50784,
			"byteOffset":446900,
			"target":34962
		},
		{
			"buffer":0,
			"byteLength":71280,
			"byteOffset":497684,
			"target":34963
		},
		{
			"buffer":0,
			"byteLength":8,
			"byteOffset":568964
		},
		{
			"buffer":0,
			"byteLength":24,
			"byteOffset":568972
		},
		{
			"buffer":0,
			"byteLength":404,
			"byteOffset":568996
		},
		{
			"buffer":0,
			"byteLength":1616,
			"byteOffset":569400
		},
		{
			"buffer":0,
			"byteLength":24,
			"byteOffset":571016
		}
	],
	"buffers":[
		{
			"byteLength":571040,
			"uri":"DAILYAPPS.bin"
		}
	]
}
