{
	"asset":{
		"generator":"Khronos glTF Blender I/O v4.1.63",
		"version":"2.0"
	},
	"scene":0,
	"scenes":[
		{
			"name":"Scene",
			"nodes":[
				0
			]
		}
	],
	"nodes":[
		{
			"mesh":0,
			"name":"Cube.025",
			"scale":[
				0.6868019700050354,
				0.6868019700050354,
				0.6868019700050354
			]
		}
	],
	"materials":[
		{
			"doubleSided":true,
			"name":"Material.015",
			"pbrMetallicRoughness":{
				"baseColorFactor":[
					1,
					0.9602984189987183,
					0,
					1
				],
				"metallicFactor":0.23853211104869843,
				"roughnessFactor":0.6100917458534241
			}
		},
		{
			"doubleSided":true,
			"name":"Material.017",
			"pbrMetallicRoughness":{
				"baseColorFactor":[
					0.03274887427687645,
					0.03274887427687645,
					0.03274887427687645,
					1
				],
				"metallicFactor":0.5963302850723267,
				"roughnessFactor":0.7752293348312378
			}
		},
		{
			"doubleSided":true,
			"name":"Material.018",
			"pbrMetallicRoughness":{
				"baseColorFactor":[
					0.06827415525913239,
					0.06827415525913239,
					0.06827415525913239,
					1
				],
				"metallicFactor":0.4954128563404083,
				"roughnessFactor":0.29816514253616333
			}
		},
		{
			"doubleSided":true,
			"name":"Material.019",
			"pbrMetallicRoughness":{
				"baseColorFactor":[
					0.5961438417434692,
					0.5961438417434692,
					0.5961438417434692,
					1
				],
				"metallicFactor":0.6605504751205444,
				"roughnessFactor":0.3073394298553467
			}
		}
	],
	"meshes":[
		{
			"name":"Cube.019",
			"primitives":[
				{
					"attributes":{
						"POSITION":0,
						"NORMAL":1,
						"TEXCOORD_0":2
					},
					"indices":3,
					"material":0
				},
				{
					"attributes":{
						"POSITION":4,
						"NORMAL":5,
						"TEXCOORD_0":6
					},
					"indices":7,
					"material":1
				},
				{
					"attributes":{
						"POSITION":8,
						"NORMAL":9,
						"TEXCOORD_0":10
					},
					"indices":11,
					"material":2
				},
				{
					"attributes":{
						"POSITION":12,
						"NORMAL":13,
						"TEXCOORD_0":14
					},
					"indices":15,
					"material":3
				}
			]
		}
	],
	"accessors":[
		{
			"bufferView":0,
			"componentType":5126,
			"count":1917,
			"max":[
				1.7282981872558594,
				1.9253828525543213,
				3.1162376403808594
			],
			"min":[
				-1.8409843444824219,
				-1.146520972251892,
				-3.6697120666503906
			],
			"type":"VEC3"
		},
		{
			"bufferView":1,
			"componentType":5126,
			"count":1917,
			"type":"VEC3"
		},
		{
			"bufferView":2,
			"componentType":5126,
			"count":1917,
			"type":"VEC2"
		},
		{
			"bufferView":3,
			"componentType":5123,
			"count":4206,
			"type":"SCALAR"
		},
		{
			"bufferView":4,
			"componentType":5126,
			"count":16234,
			"max":[
				2.325807571411133,
				2.0053720474243164,
				2.6963424682617188
			],
			"min":[
				-2.298023223876953,
				-1.7084970474243164,
				-3.4202003479003906
			],
			"type":"VEC3"
		},
		{
			"bufferView":5,
			"componentType":5126,
			"count":16234,
			"type":"VEC3"
		},
		{
			"bufferView":6,
			"componentType":5126,
			"count":16234,
			"type":"VEC2"
		},
		{
			"bufferView":7,
			"componentType":5123,
			"count":45090,
			"type":"SCALAR"
		},
		{
			"bufferView":8,
			"componentType":5126,
			"count":3963,
			"max":[
				1.7282981872558594,
				4.145410537719727,
				5.828094482421875
			],
			"min":[
				-1.7789802551269531,
				-1.4009655714035034,
				-2.5379066467285156
			],
			"type":"VEC3"
		},
		{
			"bufferView":9,
			"componentType":5126,
			"count":3963,
			"type":"VEC3"
		},
		{
			"bufferView":10,
			"componentType":5126,
			"count":3963,
			"type":"VEC2"
		},
		{
			"bufferView":11,
			"componentType":5123,
			"count":9291,
			"type":"SCALAR"
		},
		{
			"bufferView":12,
			"componentType":5126,
			"count":4112,
			"max":[
				2.0635128021240234,
				-0.21567881107330322,
				2.1785812377929688
			],
			"min":[
				-2.077718734741211,
				-1.2102501392364502,
				-2.8961830139160156
			],
			"type":"VEC3"
		},
		{
			"bufferView":13,
			"componentType":5126,
			"count":4112,
			"type":"VEC3"
		},
		{
			"bufferView":14,
			"componentType":5126,
			"count":4112,
			"type":"VEC2"
		},
		{
			"bufferView":15,
			"componentType":5123,
			"count":9552,
			"type":"SCALAR"
		}
	],
	"bufferViews":[
		{
			"buffer":0,
			"byteLength":23004,
			"byteOffset":0,
			"target":34962
		},
		{
			"buffer":0,
			"byteLength":23004,
			"byteOffset":23004,
			"target":34962
		},
		{
			"buffer":0,
			"byteLength":15336,
			"byteOffset":46008,
			"target":34962
		},
		{
			"buffer":0,
			"byteLength":8412,
			"byteOffset":61344,
			"target":34963
		},
		{
			"buffer":0,
			"byteLength":194808,
			"byteOffset":69756,
			"target":34962
		},
		{
			"buffer":0,
			"byteLength":194808,
			"byteOffset":264564,
			"target":34962
		},
		{
			"buffer":0,
			"byteLength":129872,
			"byteOffset":459372,
			"target":34962
		},
		{
			"buffer":0,
			"byteLength":90180,
			"byteOffset":589244,
			"target":34963
		},
		{
			"buffer":0,
			"byteLength":47556,
			"byteOffset":679424,
			"target":34962
		},
		{
			"buffer":0,
			"byteLength":47556,
			"byteOffset":726980,
			"target":34962
		},
		{
			"buffer":0,
			"byteLength":31704,
			"byteOffset":774536,
			"target":34962
		},
		{
			"buffer":0,
			"byteLength":18582,
			"byteOffset":806240,
			"target":34963
		},
		{
			"buffer":0,
			"byteLength":49344,
			"byteOffset":824824,
			"target":34962
		},
		{
			"buffer":0,
			"byteLength":49344,
			"byteOffset":874168,
			"target":34962
		},
		{
			"buffer":0,
			"byteLength":32896,
			"byteOffset":923512,
			"target":34962
		},
		{
			"buffer":0,
			"byteLength":19104,
			"byteOffset":956408,
			"target":34963
		}
	],
	"buffers":[
		{
			"byteLength":975512,
			"uri":"EZ.bin"
		}
	]
}
